REM DIRINDEX 1\2,1\3,1\4,1\5
REM DIRNAME cjc005,folder01,folder02,folder03,folder04
TITLE ""
FILE "P1Q_t_0492-0501.mp3" MP3
  TRACK 01 AUDIO
    TITLE "3:cjc005_2378"
    INDEX 01 00:00:00
  TRACK 02 AUDIO
    TITLE "0:"
    INDEX 01 00:00:70
  TRACK 03 AUDIO
    TITLE "4:cjc005_2379"
    INDEX 01 00:01:22
  TRACK 04 AUDIO
    TITLE "0:"
    INDEX 01 00:02:40
  TRACK 05 AUDIO
    TITLE "5:cjc005_2380"
    INDEX 01 00:02:63
  TRACK 06 AUDIO
    TITLE "0:"
    INDEX 01 00:06:14
  TRACK 07 AUDIO
    TITLE "3:cjc005_2381"
    INDEX 01 00:06:65
  TRACK 08 AUDIO
    TITLE "0:"
    INDEX 01 00:08:01
  TRACK 09 AUDIO
    TITLE "4:cjc005_2382"
    INDEX 01 00:08:21
  TRACK 10 AUDIO
    TITLE "0:"
    INDEX 01 00:09:47
  TRACK 11 AUDIO
    TITLE "5:cjc005_2383"
    INDEX 01 00:09:69
  TRACK 12 AUDIO
    TITLE "0:"
    INDEX 01 00:14:37
  TRACK 13 AUDIO
    TITLE "3:cjc005_2384"
    INDEX 01 00:15:19
  TRACK 14 AUDIO
    TITLE "0:"
    INDEX 01 00:16:40
  TRACK 15 AUDIO
    TITLE "4:cjc005_2385"
    INDEX 01 00:16:63
  TRACK 16 AUDIO
    TITLE "0:"
    INDEX 01 00:18:25
  TRACK 17 AUDIO
    TITLE "5:cjc005_2386"
    INDEX 01 00:18:46
  TRACK 18 AUDIO
    TITLE "0:"
    INDEX 01 00:22:64
  TRACK 19 AUDIO
    TITLE "3:cjc005_2387"
    INDEX 01 00:23:34
  TRACK 20 AUDIO
    TITLE "0:"
    INDEX 01 00:24:43
  TRACK 21 AUDIO
    TITLE "4:cjc005_2388"
    INDEX 01 00:24:65
  TRACK 22 AUDIO
    TITLE "0:"
    INDEX 01 00:26:40
  TRACK 23 AUDIO
    TITLE "5:cjc005_2389"
    INDEX 01 00:26:66
  TRACK 24 AUDIO
    TITLE "0:"
    INDEX 01 00:30:08
  TRACK 25 AUDIO
    TITLE "3:cjc005_2390"
    INDEX 01 00:30:59
  TRACK 26 AUDIO
    TITLE "0:"
    INDEX 01 00:31:73
  TRACK 27 AUDIO
    TITLE "4:cjc005_2391"
    INDEX 01 00:32:25
  TRACK 28 AUDIO
    TITLE "0:"
    INDEX 01 00:33:58
  TRACK 29 AUDIO
    TITLE "5:cjc005_2392"
    INDEX 01 00:34:06
  TRACK 30 AUDIO
    TITLE "0:"
    INDEX 01 00:37:26
  TRACK 31 AUDIO
    TITLE "3:cjc005_2393"
    INDEX 01 00:38:02
  TRACK 32 AUDIO
    TITLE "0:"
    INDEX 01 00:39:19
  TRACK 33 AUDIO
    TITLE "4:cjc005_2394"
    INDEX 01 00:39:54
  TRACK 34 AUDIO
    TITLE "0:"
    INDEX 01 00:40:56
  TRACK 35 AUDIO
    TITLE "5:cjc005_2395"
    INDEX 01 00:41:04
  TRACK 36 AUDIO
    TITLE "0:"
    INDEX 01 00:45:02
  TRACK 37 AUDIO
    TITLE "3:cjc005_2396"
    INDEX 01 00:45:47
  TRACK 38 AUDIO
    TITLE "0:"
    INDEX 01 00:46:64
  TRACK 39 AUDIO
    TITLE "4:cjc005_2397"
    INDEX 01 00:47:23
  TRACK 40 AUDIO
    TITLE "0:"
    INDEX 01 00:48:61
  TRACK 41 AUDIO
    TITLE "5:cjc005_2398"
    INDEX 01 00:49:14
  TRACK 42 AUDIO
    TITLE "0:"
    INDEX 01 00:52:41
  TRACK 43 AUDIO
    TITLE "3:cjc005_2399"
    INDEX 01 00:53:25
  TRACK 44 AUDIO
    TITLE "0:"
    INDEX 01 00:54:29
  TRACK 45 AUDIO
    TITLE "4:cjc005_2400"
    INDEX 01 00:54:56
  TRACK 46 AUDIO
    TITLE "0:"
    INDEX 01 00:56:10
  TRACK 47 AUDIO
    TITLE "5:cjc005_2401"
    INDEX 01 00:56:35
  TRACK 48 AUDIO
    TITLE "0:"
    INDEX 01 01:00:43
  TRACK 49 AUDIO
    TITLE "3:cjc005_2402"
    INDEX 01 01:01:27
  TRACK 50 AUDIO
    TITLE "0:"
    INDEX 01 01:02:40
  TRACK 51 AUDIO
    TITLE "4:cjc005_2403"
    INDEX 01 01:02:67
  TRACK 52 AUDIO
    TITLE "0:"
    INDEX 01 01:04:58
  TRACK 53 AUDIO
    TITLE "5:cjc005_2404"
    INDEX 01 01:05:11
  TRACK 54 AUDIO
    TITLE "0:"
    INDEX 01 01:08:58
  TRACK 55 AUDIO
    TITLE "3:cjc005_2405"
    INDEX 01 01:09:36
  TRACK 56 AUDIO
    TITLE "0:"
    INDEX 01 01:10:43
  TRACK 57 AUDIO
    TITLE "4:cjc005_2406"
    INDEX 01 01:10:69
  TRACK 58 AUDIO
    TITLE "0:"
    INDEX 01 01:12:19
  TRACK 59 AUDIO
    TITLE "5:cjc005_2407"
    INDEX 01 01:12:44
  TRACK 60 AUDIO
    TITLE "0:"
    INDEX 01 01:15:70
